HIERARCHY
ROOT Hips
{
	OFFSET 50.241600 -17.468216 97.009003
	CHANNELS 6 Xposition Yposition Zposition Xrotation Yrotation Zrotation
	JOINT spine
	{
		OFFSET 0.000000 -0.458069 7.965683
		CHANNELS 3 Xrotation Yrotation Zrotation
		JOINT spine1
		{
			OFFSET 0.000000 -0.000002 10.243103
			CHANNELS 3 Xrotation Yrotation Zrotation
			JOINT spine2
			{
				OFFSET 0.000000 -0.000002 9.814751
				CHANNELS 3 Xrotation Yrotation Zrotation
				JOINT Neck
				{
					OFFSET 0.000000 -1.201384 25.198601
					CHANNELS 3 Xrotation Yrotation Zrotation
					JOINT Head
					{
						OFFSET 0.000000 0.000000 7.613144
						CHANNELS 3 Xrotation Yrotation Zrotation
						End Site
						{
							OFFSET 0.000000 6.077326 18.428101
						}
					}
				}
				JOINT RightShoulder
				{
					OFFSET -4.132698 0.575449 10.599205
					CHANNELS 3 Xrotation Yrotation Zrotation
					JOINT RightArm
					{
						OFFSET 0.000000 -0.000002 13.901794
						CHANNELS 3 Xrotation Yrotation Zrotation
						JOINT RightArmRoll
						{
							OFFSET 0.000000 0.000000 7.017883
							CHANNELS 3 Xrotation Yrotation Zrotation
							JOINT RightForeArm
							{
								OFFSET 0.000000 -0.000004 20.440598
								CHANNELS 3 Xrotation Yrotation Zrotation
								JOINT RightForeArmRoll
								{
									OFFSET 0.000000 -0.000002 7.875153
									CHANNELS 3 Xrotation Yrotation Zrotation
									JOINT RightHand
									{
										OFFSET 0.000000 -0.000002 15.803696
										CHANNELS 3 Xrotation Yrotation Zrotation
										End Site
										{
											OFFSET 0.000000 0.000000 0.100006
										}
									}
								}
							}
						}
					}
				}
				JOINT LeftShoulder
				{
					OFFSET 4.132698 0.575449 10.599205
					CHANNELS 3 Xrotation Yrotation Zrotation
					JOINT LeftArm
					{
						OFFSET 0.000000 -0.000002 13.901794
						CHANNELS 3 Xrotation Yrotation Zrotation
						JOINT LeftArmRoll
						{
							OFFSET 0.000000 0.000000 7.017883
							CHANNELS 3 Xrotation Yrotation Zrotation
							JOINT LeftForeArm
							{
								OFFSET 0.000000 -0.000004 20.440598
								CHANNELS 3 Xrotation Yrotation Zrotation
								JOINT LeftForeArmRoll
								{
									OFFSET 0.000000 -0.000002 7.875168
									CHANNELS 3 Xrotation Yrotation Zrotation
									JOINT LeftHand
									{
										OFFSET 0.000000 -0.000002 15.803696
										CHANNELS 3 Xrotation Yrotation Zrotation
										End Site
										{
											OFFSET 0.000000 0.000000 0.100006
										}
									}
								}
							}
						}
					}
				}
			}
		}
	}
	JOINT RightUpLeg
	{
		OFFSET -7.060478 1.086100 -1.294701
		CHANNELS 3 Xrotation Yrotation Zrotation
		JOINT RightUpLegRoll
		{
			OFFSET 0.000000 -0.000004 18.530800
			CHANNELS 3 Xrotation Yrotation Zrotation
			JOINT RightLeg
			{
				OFFSET 0.000000 0.000004 -22.947601
				CHANNELS 3 Xrotation Yrotation Zrotation
				JOINT RightLegRoll
				{
					OFFSET 0.000000 -0.000004 23.022598
					CHANNELS 3 Xrotation Yrotation Zrotation
					JOINT RightFoot
					{
						OFFSET 0.000000 -0.000002 19.162506
						CHANNELS 3 Xrotation Yrotation Zrotation
						JOINT RightToeBase
						{
							OFFSET 0.000000 -0.000004 16.018799
							CHANNELS 3 Xrotation Yrotation Zrotation
							End Site
							{
								OFFSET 0.006790 0.894205 7.757812
							}
						}
					}
				}
			}
		}
	}
	JOINT LeftUpLeg
	{
		OFFSET 7.060478 1.086100 -1.294701
		CHANNELS 3 Xrotation Yrotation Zrotation
		JOINT LeftUpLegRoll
		{
			OFFSET 0.000000 -0.000004 18.530899
			CHANNELS 3 Xrotation Yrotation Zrotation
			JOINT LeftLeg
			{
				OFFSET 0.000000 -0.000004 22.947502
				CHANNELS 3 Xrotation Yrotation Zrotation
				JOINT LeftLegRoll
				{
					OFFSET 0.000000 -0.000004 23.235504
					CHANNELS 3 Xrotation Yrotation Zrotation
					JOINT LeftFoot
					{
						OFFSET 0.000000 -0.000002 18.949600
						CHANNELS 3 Xrotation Yrotation Zrotation
						JOINT LeftToeBase
						{
							OFFSET 0.000000 -0.000004 16.018799
							CHANNELS 3 Xrotation Yrotation Zrotation
							End Site
							{
								OFFSET -0.030430 0.894205 7.757812
							}
						}
					}
				}
			}
		}
	}
}
MOTION
Frames: 4
Frame Time: 0.041667
50.061195 -13.667820 96.907608 -7.129084 0.224444 -2.964258 -0.253117 -0.115037 -0.381352 3.510091 -0.235406 -0.762337 5.155107 -0.244207 -0.759496 1.989036 14.328318 -4.441987 10.084047 -12.629244 -4.153842 -6.827793 -66.542141 -8.648894 123.261186 -55.533413 89.574605 0.000004 0.000003 -0.000003 92.351958 -1.672976 -6.459660 0.000008 0.000033 -3.000000 -4.999979 -8.000094 -0.000007 -5.044188 60.306623 6.083419 -51.252005 121.781604 82.690676 -0.000015 -0.000032 -0.000000 94.627763 1.934229 7.250837 0.000003 -0.000000 3.000010 -5.000005 8.000073 0.000022 5.602781 -173.869200 5.800308 179.999991 -0.000004 -1.294002 174.121644 -1.790536 -0.491318 -0.000003 0.000002 0.085327 69.307330 6.969963 1.919000 25.456953 -7.353954 0.000000 6.225272 172.849972 -4.016652 -0.000020 -0.000004 -1.297150 -6.158773 2.120193 0.252443 -0.000004 -0.000000 -0.091647 69.460148 -6.953583 -1.934209 25.456894 7.351314 0.000002 
50.059395 -13.661018 96.904610 -7.119323 0.228776 -2.974256 -0.252946 -0.115911 -0.380296 3.509420 -0.236910 -0.760657 5.154449 -0.245717 -0.757799 2.043999 14.356837 -4.469791 9.972807 -12.655532 -4.185715 -6.872051 -66.581101 -8.701781 123.220615 -55.830885 89.473347 0.000005 0.000001 -0.000003 92.481260 -1.578990 -6.568805 0.000005 0.000032 -2.999999 -4.999984 -8.000093 -0.000007 -5.016168 60.315707 6.051507 -51.075970 121.642691 82.353817 -0.000016 -0.000032 -0.000003 94.663683 1.910936 7.262171 0.000001 -0.000000 3.000013 -5.000005 8.000077 0.000023 5.599189 -173.869159 5.800977 179.999991 -0.000005 -1.294002 174.131971 -1.795543 -0.490509 -0.000002 0.000002 0.085326 69.306066 6.969939 1.918978 25.456957 -7.353955 0.000000 6.224786 172.846980 -4.021153 -0.000020 -0.000004 -1.297150 -6.152462 2.123748 0.252447 -0.000004 0.000000 -0.091646 69.457922 -6.953598 -1.934251 25.456892 7.351313 0.000003 
50.059597 -13.665218 96.905006 -7.109529 0.233257 -2.984237 -0.252777 -0.116795 -0.379180 3.508711 -0.238423 -0.758892 5.153741 -0.247237 -0.756016 2.099859 14.385734 -4.498064 9.860046 -12.682342 -4.218138 -6.917079 -66.621023 -8.755603 123.177749 -56.127059 89.367896 0.000003 0.000002 -0.000001 92.612372 -1.484816 -6.679151 0.000005 0.000032 -2.999999 -4.999983 -8.000095 -0.000006 -4.988287 60.324463 6.019716 -50.894875 121.505855 82.011222 -0.000015 -0.000032 -0.000004 94.700341 1.887577 7.273529 0.000002 0.000002 3.000010 -5.000002 8.000076 0.000023 5.595723 -173.869118 5.801726 179.999991 -0.000004 -1.294002 174.142790 -1.800552 -0.490681 -0.000002 0.000001 0.085325 69.304488 6.969978 1.918883 25.456952 -7.353955 0.000000 6.224519 172.843988 -4.025883 -0.000020 -0.000005 -1.297150 -6.145591 2.127385 0.252452 -0.000004 -0.000000 -0.091646 69.455497 -6.953602 -1.934206 25.456894 7.351312 0.000003 
50.062397 -13.678519 96.900108 -7.099679 0.237842 -2.994196 -0.252615 -0.117686 -0.378024 3.507970 -0.239944 -0.757065 5.152999 -0.248767 -0.754172 2.156358 14.415012 -4.526709 9.746215 -12.709554 -4.250986 -6.962736 -66.661724 -8.810173 123.131631 -56.422714 89.257800 0.000003 0.000002 -0.000002 92.744960 -1.390704 -6.791680 0.000005 0.000029 -3.000001 -4.999982 -8.000092 -0.000004 -4.960486 60.332919 5.987987 -50.709780 121.370440 81.664604 -0.000018 -0.000031 -0.000003 94.737456 1.864307 7.284877 0.000005 -0.000001 3.000009 -5.000005 8.000074 0.000025 5.592322 -173.870101 5.802445 179.999991 -0.000004 -1.294002 174.153909 -1.805562 -0.490841 -0.000003 0.000002 0.085326 69.302794 6.969971 1.918888 25.456955 -7.353956 -0.000000 6.224403 172.840013 -4.030878 -0.000020 -0.000004 -1.297150 -6.138332 2.131063 0.252456 -0.000004 -0.000000 -0.091646 69.452840 -6.953600 -1.934172 25.456894 7.351313 0.000003 
